Trimmed_Nord000004_forces_filt12Hz.mot
version=1
nRows=19
nColumns=28
inDegrees=yes
endheader
time	R_ground_force_vx	R_ground_force_vy	R_ground_force_vz	R_ground_force_px	R_ground_force_py	R_ground_force_pz	R_ground_torque_x	R_ground_torque_y	R_ground_torque_z	L_ground_force_vx	L_ground_force_vy	L_ground_force_vz	L_ground_force_px	L_ground_force_py	L_ground_force_pz	L_ground_torque_x	L_ground_torque_y	L_ground_torque_z	3_ground_force_vx	3_ground_force_vy	3_ground_force_vz	3_ground_force_px	3_ground_force_py	3_ground_force_pz	3_ground_torque_x	3_ground_torque_y	3_ground_torque_z	
0.000000	  0.000000	  0.000000	  0.000000	  0.000000	  0.000000	  0.000000	  0.000000	  0.000000	  0.000000	  0.525566	421.484787	-24.362490	 -0.251102	  0.006000	 -1.007355	  0.000000	  3.582319	  0.000000	 -1.372306	513.728369	 26.166762	 -0.269447	  0.006000	 -1.385504	  0.000000	 -0.570709	  0.000000
0.000500	  0.000000	  0.000000	  0.000000	  0.000000	  0.000000	  0.000000	  0.000000	  0.000000	  0.000000	  0.529762	421.472965	-24.361141	 -0.251094	  0.006000	 -1.007353	  0.000000	  3.585848	  0.000000	 -1.369187	513.706391	 26.172740	 -0.269462	  0.006000	 -1.385495	  0.000000	 -0.568183	  0.000000
0.001000	  0.000000	  0.000000	  0.000000	  0.000000	  0.000000	  0.000000	  0.000000	  0.000000	  0.000000	  0.533867	421.461320	-24.359802	 -0.251087	  0.006000	 -1.007350	  0.000000	  3.589373	  0.000000	 -1.366129	513.684392	 26.178716	 -0.269477	  0.006000	 -1.385486	  0.000000	 -0.565649	  0.000000
0.001500	  0.000000	  0.000000	  0.000000	  0.000000	  0.000000	  0.000000	  0.000000	  0.000000	  0.000000	  0.537873	421.449870	-24.358477	 -0.251079	  0.006000	 -1.007348	  0.000000	  3.592889	  0.000000	 -1.363138	513.662396	 26.184684	 -0.269492	  0.006000	 -1.385478	  0.000000	 -0.563113	  0.000000
0.002000	  0.000000	  0.000000	  0.000000	  0.000000	  0.000000	  0.000000	  0.000000	  0.000000	  0.000000	  0.541772	421.438629	-24.357169	 -0.251071	  0.006000	 -1.007346	  0.000000	  3.596390	  0.000000	 -1.360222	513.640424	 26.190639	 -0.269506	  0.006000	 -1.385469	  0.000000	 -0.560576	  0.000000
0.002500	  0.000000	  0.000000	  0.000000	  0.000000	  0.000000	  0.000000	  0.000000	  0.000000	  0.000000	  0.545556	421.427614	-24.355881	 -0.251063	  0.006000	 -1.007344	  0.000000	  3.599874	  0.000000	 -1.357387	513.618496	 26.196576	 -0.269521	  0.006000	 -1.385461	  0.000000	 -0.558042	  0.000000
0.003000	  0.000000	  0.000000	  0.000000	  0.000000	  0.000000	  0.000000	  0.000000	  0.000000	  0.000000	  0.549220	421.416839	-24.354616	 -0.251056	  0.006000	 -1.007341	  0.000000	  3.603335	  0.000000	 -1.354639	513.596634	 26.202491	 -0.269535	  0.006000	 -1.385452	  0.000000	 -0.555515	  0.000000
0.003500	  0.000000	  0.000000	  0.000000	  0.000000	  0.000000	  0.000000	  0.000000	  0.000000	  0.000000	  0.552756	421.406317	-24.353375	 -0.251048	  0.006000	 -1.007339	  0.000000	  3.606771	  0.000000	 -1.351984	513.574854	 26.208379	 -0.269549	  0.006000	 -1.385444	  0.000000	 -0.552996	  0.000000
0.004000	  0.000000	  0.000000	  0.000000	  0.000000	  0.000000	  0.000000	  0.000000	  0.000000	  0.000000	  0.556160	421.396060	-24.352162	 -0.251041	  0.006000	 -1.007337	  0.000000	  3.610176	  0.000000	 -1.349427	513.553175	 26.214236	 -0.269563	  0.006000	 -1.385436	  0.000000	 -0.550489	  0.000000
0.004500	  0.000000	  0.000000	  0.000000	  0.000000	  0.000000	  0.000000	  0.000000	  0.000000	  0.000000	  0.559425	421.386077	-24.350977	 -0.251033	  0.006000	 -1.007335	  0.000000	  3.613547	  0.000000	 -1.346973	513.531611	 26.220059	 -0.269576	  0.006000	 -1.385428	  0.000000	 -0.547997	  0.000000
0.005000	  0.000000	  0.000000	  0.000000	  0.000000	  0.000000	  0.000000	  0.000000	  0.000000	  0.000000	  0.562546	421.376377	-24.349821	 -0.251026	  0.006000	 -1.007332	  0.000000	  3.616882	  0.000000	 -1.344627	513.510176	 26.225845	 -0.269590	  0.006000	 -1.385420	  0.000000	 -0.545522	  0.000000
0.005500	  0.000000	  0.000000	  0.000000	  0.000000	  0.000000	  0.000000	  0.000000	  0.000000	  0.000000	  0.565518	421.366972	-24.348695	 -0.251018	  0.006000	 -1.007330	  0.000000	  3.620178	  0.000000	 -1.342393	513.488883	 26.231592	 -0.269603	  0.006000	 -1.385412	  0.000000	 -0.543066	  0.000000
0.006000	  0.000000	  0.000000	  0.000000	  0.000000	  0.000000	  0.000000	  0.000000	  0.000000	  0.000000	  0.568335	421.357870	-24.347600	 -0.251011	  0.006000	 -1.007328	  0.000000	  3.623432	  0.000000	 -1.340274	513.467743	 26.237299	 -0.269616	  0.006000	 -1.385404	  0.000000	 -0.540632	  0.000000
0.006500	  0.000000	  0.000000	  0.000000	  0.000000	  0.000000	  0.000000	  0.000000	  0.000000	  0.000000	  0.570994	421.349081	-24.346536	 -0.251003	  0.006000	 -1.007326	  0.000000	  3.626641	  0.000000	 -1.338274	513.446768	 26.242963	 -0.269629	  0.006000	 -1.385397	  0.000000	 -0.538221	  0.000000
0.007000	  0.000000	  0.000000	  0.000000	  0.000000	  0.000000	  0.000000	  0.000000	  0.000000	  0.000000	  0.573491	421.340613	-24.345505	 -0.250996	  0.006000	 -1.007324	  0.000000	  3.629804	  0.000000	 -1.336395	513.425970	 26.248585	 -0.269641	  0.006000	 -1.385390	  0.000000	 -0.535834	  0.000000
0.007500	  0.000000	  0.000000	  0.000000	  0.000000	  0.000000	  0.000000	  0.000000	  0.000000	  0.000000	  0.575823	421.332472	-24.344508	 -0.250989	  0.006000	 -1.007321	  0.000000	  3.632919	  0.000000	 -1.334637	513.405360	 26.254164	 -0.269653	  0.006000	 -1.385382	  0.000000	 -0.533474	  0.000000
0.008000	  0.000000	  0.000000	  0.000000	  0.000000	  0.000000	  0.000000	  0.000000	  0.000000	  0.000000	  0.577988	421.324664	-24.343548	 -0.250982	  0.006000	 -1.007319	  0.000000	  3.635982	  0.000000	 -1.333004	513.384950	 26.259698	 -0.269665	  0.006000	 -1.385375	  0.000000	 -0.531141	  0.000000
0.008500	  0.000000	  0.000000	  0.000000	  0.000000	  0.000000	  0.000000	  0.000000	  0.000000	  0.000000	  0.579984	421.317192	-24.342628	 -0.250975	  0.006000	 -1.007317	  0.000000	  3.638993	  0.000000	 -1.331495	513.364751	 26.265186	 -0.269676	  0.006000	 -1.385369	  0.000000	 -0.528837	  0.000000
0.009000	  0.000000	  0.000000	  0.000000	  0.000000	  0.000000	  0.000000	  0.000000	  0.000000	  0.000000	  0.581812	421.310058	-24.341751	 -0.250968	  0.006000	 -1.007315	  0.000000	  3.641948	  0.000000	 -1.330112	513.344776	 26.270628	 -0.269687	  0.006000	 -1.385362	  0.000000	 -0.526560	  0.000000
